HIERARCHY
ROOT Hips
{
    OFFSET   0.000000   0.000000   0.000000
    CHANNELS 6 Xposition Yposition Zposition Zrotation Xrotation Yrotation
    JOINT Chest
    {
        OFFSET   0.000000   8.007230   0.000000
        CHANNELS 3 Zrotation Xrotation Yrotation
        JOINT Chest2
        {
            OFFSET   0.000000  22.077100   0.000000
            CHANNELS 3 Zrotation Xrotation Yrotation
            JOINT Neck
            {
                OFFSET   0.000000  23.254800  -0.000021
                CHANNELS 3 Zrotation Xrotation Yrotation
                JOINT Head
                {
                    OFFSET   0.000000  14.370000   1.956610
                    CHANNELS 3 Zrotation Xrotation Yrotation
                    End Site
                    {
                        OFFSET   0.000000  19.566000   0.000000
                    }
                }
            }
            JOINT LeftCollar
            {
                OFFSET   3.911900  19.017000  -0.467063
                CHANNELS 3 Zrotation Xrotation Yrotation
                JOINT LeftShoulder
                {
                    OFFSET  10.383700   0.000000   0.000000
                    CHANNELS 3 Zrotation Xrotation Yrotation
                    JOINT LeftElbow
                    {
                        OFFSET  26.662100   0.001529   0.000325
                        CHANNELS 3 Zrotation Xrotation Yrotation
                        JOINT LeftWrist
                        {
                            OFFSET  28.869000  -0.000011  -0.000096
                            CHANNELS 3 Zrotation Xrotation Yrotation
                            JOINT LeftFinger0
                            {
                                OFFSET   2.044650  -2.323460   3.252850
                                CHANNELS 3 Zrotation Xrotation Yrotation
                                JOINT LeftFinger01
                                {
                                    OFFSET   3.088130   0.000000   0.000000
                                    CHANNELS 3 Zrotation Xrotation Yrotation
                                    JOINT LeftFinger02
                                    {
                                        OFFSET   2.639460   0.000000   0.000000
                                        CHANNELS 3 Zrotation Xrotation Yrotation
                                        End Site
                                        {
                                            OFFSET   2.582190   0.000000   0.000000
                                        }
                                    }
                                }
                            }
                            JOINT LeftFinger1
                            {
                                OFFSET   8.364480   0.000000   3.252850
                                CHANNELS 3 Zrotation Xrotation Yrotation
                                JOINT LeftFinger11
                                {
                                    OFFSET   4.646930   0.000000   0.000000
                                    CHANNELS 3 Zrotation Xrotation Yrotation
                                    JOINT LeftFinger12
                                    {
                                        OFFSET   2.323460   0.000000   0.000000
                                        CHANNELS 3 Zrotation Xrotation Yrotation
                                        End Site
                                        {
                                            OFFSET   2.273050   0.000000   0.000000
                                        }
                                    }
                                }
                            }
                            JOINT LeftFinger2
                            {
                                OFFSET   8.364480   0.000016   1.078090
                                CHANNELS 3 Zrotation Xrotation Yrotation
                                JOINT LeftFinger21
                                {
                                    OFFSET   5.111620   0.000000   0.000000
                                    CHANNELS 3 Zrotation Xrotation Yrotation
                                    JOINT LeftFinger22
                                    {
                                        OFFSET   2.788160   0.000017   0.000000
                                        CHANNELS 3 Zrotation Xrotation Yrotation
                                        End Site
                                        {
                                            OFFSET   2.727660   0.000000   0.000000
                                        }
                                    }
                                }
                            }
                            JOINT LeftFinger3
                            {
                                OFFSET   7.899780   0.000015  -1.078090
                                CHANNELS 3 Zrotation Xrotation Yrotation
                                JOINT LeftFinger31
                                {
                                    OFFSET   4.646920   0.000000   0.000000
                                    CHANNELS 3 Zrotation Xrotation Yrotation
                                    JOINT LeftFinger32
                                    {
                                        OFFSET   2.323470   0.000000   0.000000
                                        CHANNELS 3 Zrotation Xrotation Yrotation
                                        End Site
                                        {
                                            OFFSET   2.273050   0.000000   0.000000
                                        }
                                    }
                                }
                            }
                            JOINT LeftFinger4
                            {
                                OFFSET   7.435090   0.000000  -3.252850
                                CHANNELS 3 Zrotation Xrotation Yrotation
                                JOINT LeftFinger41
                                {
                                    OFFSET   3.717550   0.000000   0.000000
                                    CHANNELS 3 Zrotation Xrotation Yrotation
                                    JOINT LeftFinger42
                                    {
                                        OFFSET   1.858760   0.000000   0.000000
                                        CHANNELS 3 Zrotation Xrotation Yrotation
                                        End Site
                                        {
                                            OFFSET   1.818440   0.000000   0.000000
                                        }
                                    }
                                }
                            }
                        }
                    }
                }
            }
            JOINT RightCollar
            {
                OFFSET  -3.911900  19.017000  -0.467062
                CHANNELS 3 Zrotation Xrotation Yrotation
                JOINT RightShoulder
                {
                    OFFSET -10.383700   0.000015   0.000000
                    CHANNELS 3 Zrotation Xrotation Yrotation
                    JOINT RightElbow
                    {
                        OFFSET -26.662100   0.001341   0.000385
                        CHANNELS 3 Zrotation Xrotation Yrotation
                        JOINT RightWrist
                        {
                            OFFSET -28.869000   0.000025  -0.000080
                            CHANNELS 3 Zrotation Xrotation Yrotation
                            JOINT RightFinger0
                            {
                                OFFSET  -2.044650  -2.323490   3.252850
                                CHANNELS 3 Zrotation Xrotation Yrotation
                                JOINT RightFinger01
                                {
                                    OFFSET  -3.088130   0.000000   0.000000
                                    CHANNELS 3 Zrotation Xrotation Yrotation
                                    JOINT RightFinger02
                                    {
                                        OFFSET  -2.639460   0.000000   0.000000
                                        CHANNELS 3 Zrotation Xrotation Yrotation
                                        End Site
                                        {
                                            OFFSET  -2.582190   0.000000   0.000000
                                        }
                                    }
                                }
                            }
                            JOINT RightFinger1
                            {
                                OFFSET  -8.364480   0.000000   3.252850
                                CHANNELS 3 Zrotation Xrotation Yrotation
                                JOINT RightFinger11
                                {
                                    OFFSET  -4.646930   0.000000   0.000000
                                    CHANNELS 3 Zrotation Xrotation Yrotation
                                    JOINT RightFinger12
                                    {
                                        OFFSET  -2.323470   0.000000   0.000000
                                        CHANNELS 3 Zrotation Xrotation Yrotation
                                        End Site
                                        {
                                            OFFSET  -2.273050   0.000000   0.000000
                                        }
                                    }
                                }
                            }
                            JOINT RightFinger2
                            {
                                OFFSET  -8.364480   0.000000   1.078090
                                CHANNELS 3 Zrotation Xrotation Yrotation
                                JOINT RightFinger21
                                {
                                    OFFSET  -5.111610   0.000000   0.000000
                                    CHANNELS 3 Zrotation Xrotation Yrotation
                                    JOINT RightFinger22
                                    {
                                        OFFSET  -2.788160   0.000000   0.000000
                                        CHANNELS 3 Zrotation Xrotation Yrotation
                                        End Site
                                        {
                                            OFFSET  -2.727660   0.000000   0.000000
                                        }
                                    }
                                }
                            }
                            JOINT RightFinger3
                            {
                                OFFSET  -7.899780   0.000000  -1.078090
                                CHANNELS 3 Zrotation Xrotation Yrotation
                                JOINT RightFinger31
                                {
                                    OFFSET  -4.646920   0.000000   0.000000
                                    CHANNELS 3 Zrotation Xrotation Yrotation
                                    JOINT RightFinger32
                                    {
                                        OFFSET  -2.323470   0.000000   0.000000
                                        CHANNELS 3 Zrotation Xrotation Yrotation
                                        End Site
                                        {
                                            OFFSET  -2.273050   0.000000   0.000000
                                        }
                                    }
                                }
                            }
                            JOINT RightFinger4
                            {
                                OFFSET  -7.435090   0.000000  -3.252850
                                CHANNELS 3 Zrotation Xrotation Yrotation
                                JOINT RightFinger41
                                {
                                    OFFSET  -3.717550   0.000000   0.000000
                                    CHANNELS 3 Zrotation Xrotation Yrotation
                                    JOINT RightFinger42
                                    {
                                        OFFSET  -1.858770   0.000000   0.000000
                                        CHANNELS 3 Zrotation Xrotation Yrotation
                                        End Site
                                        {
                                            OFFSET  -1.818440   0.000000   0.000000
                                        }
                                    }
                                }
                            }
                        }
                    }
                }
            }
        }
    }
    JOINT LeftHip
    {
        OFFSET   9.783010   0.000000   0.000000
        CHANNELS 3 Zrotation Xrotation Yrotation
        JOINT LeftKnee
        {
            OFFSET   0.000070 -41.789100   0.000028
            CHANNELS 3 Zrotation Xrotation Yrotation
            JOINT LeftAnkle
            {
                OFFSET   0.000087 -41.133200  -0.000100
                CHANNELS 3 Zrotation Xrotation Yrotation
                JOINT LeftToe
                {
                    OFFSET   0.000000  -6.358960  14.674500
                    CHANNELS 3 Zrotation Xrotation Yrotation
                    End Site
                    {
                        OFFSET   0.000000   0.000000   3.913200
                    }
                }
            }
        }
    }
    JOINT RightHip
    {
        OFFSET  -9.783020   0.000000   0.000000
        CHANNELS 3 Zrotation Xrotation Yrotation
        JOINT RightKnee
        {
            OFFSET   0.000044 -41.789100  -0.000870
            CHANNELS 3 Zrotation Xrotation Yrotation
            JOINT RightAnkle
            {
                OFFSET  -0.000090 -41.133200  -0.000245
                CHANNELS 3 Zrotation Xrotation Yrotation
                JOINT RightToe
                {
                    OFFSET   0.000000  -6.358960  14.674500
                    CHANNELS 3 Zrotation Xrotation Yrotation
                    End Site
                    {
                        OFFSET   0.000000   0.000000   3.913200
                    }
                }
            }
        }
    }
}
MOTION
Frames: 4
Frame Time:   0.016667
 -2.261340  89.469900   2.415060  -0.716887  -1.541220  -0.103629   0.272203   3.075840   0.143599   0.537838   6.152370   0.273131  -0.783917  -0.065398   0.002388  -1.287850  -0.133099   4.104110  -3.979200   1.759610   4.660010 -79.203300   4.333370  -1.930540   0.003915   5.544380 -16.184800   9.609730  -2.808780  -3.163280  40.662000  34.322800 -50.692300 -32.180600  -0.002298   0.006282 -11.090300   0.013960   0.002829 -31.072100  -1.346800   2.233760 -25.444100  -0.007880   0.000641 -17.810900  -0.005631   0.001575 -25.933900  -4.299120   8.757610 -26.263400   0.001890   0.005419 -17.491400  -0.001380  -0.010783 -28.245800  -4.643440   8.570110 -37.225400  -0.000524   0.000849 -24.792200   0.002002   0.000155 -34.224900  -5.515630   8.039220 -51.918300   0.002692  -0.002354 -34.577600   0.001525   0.000948  10.629300   2.998350   2.593670  69.363900  -7.142470   0.665558   2.966530  -4.413340  20.584400 -16.855900  -8.242900   8.242510 -34.287800  27.556600  72.223500  27.685600  -0.008051   0.002341   8.842780   0.008138   0.003329  33.173300   0.136865   0.204650  27.131700   0.008430   0.007766  18.992200  -0.004474   0.006993  28.547800  -3.776180  -6.902350  42.592900  -0.004273   0.003044  28.366800   0.011333   0.002303  28.301900  -4.552370  -8.386800  37.658700   0.001112   0.005674  25.080700  -0.008759  -0.001203  39.511000  -6.102080  -7.344070  59.826600   0.002866   0.007940  39.844600   0.005082   0.004994   3.579560   2.331490  -1.030980   0.900932   2.677280  10.286900  -3.778890  -3.892070  -0.635382  -0.000000   0.000000  -0.000000   0.751248   4.477190  -5.914030   1.803070   0.196729 -14.343900  -0.512755  -3.283280   1.801130   0.000000   0.000000  -0.000000
 -2.263470  89.469800   2.396510  -0.700740  -1.608650  -0.105909   0.286456   3.139980   0.118663   0.567660   6.280550   0.222072  -0.835081  -0.124589   0.002322  -1.372540  -0.252959   4.280190  -3.974690   1.763480   4.579500 -79.212900   4.333500  -1.981650   0.000508   5.532130 -16.217800   9.605660  -2.867810  -3.165270  40.631700  34.271700 -50.678800 -32.181500  -0.002301   0.006286 -11.090700   0.014105   0.002831 -31.092900  -1.352400   2.241170 -25.461200  -0.007888   0.000689 -17.822900  -0.005685   0.001575 -25.945100  -4.298790   8.754590 -26.274500   0.002029   0.005468 -17.498800  -0.001254  -0.010880 -28.246000  -4.643440   8.570110 -37.258300  -0.000524   0.000849 -24.814100   0.002146   0.000193 -34.230600  -5.515630   8.039220 -51.927500   0.002904  -0.002355 -34.583700   0.001640   0.001030  10.539200   3.021540   2.372710  69.541100  -7.327240   0.678033   3.023820  -4.307110  22.100500 -16.614500  -8.727860   8.713620 -34.638200  28.528300  72.967200  27.198900  -0.008051   0.002454   8.599460   0.008139   0.003329  33.166100   0.496527   0.751600  27.130100   0.008514   0.007766  18.991100  -0.004470   0.006997  28.530600  -3.769470  -6.894200  42.734900  -0.004207   0.002967  28.461400   0.011318   0.002244  28.355700  -4.097060  -7.543010  37.583500   0.001099   0.005931  25.030600  -0.008742  -0.001185  39.675500  -5.512820  -6.586980  59.958500   0.002842   0.013168  39.932400   0.004987   0.004899   3.571890   2.377090  -1.041650   0.898114   2.698380  10.295300  -3.789620  -3.888000  -0.635181  -0.000000   0.000000  -0.000000   0.741730   4.545370  -5.927970   1.805430   0.177313 -14.342300  -0.515996  -3.279510   1.804430   0.000000   0.000000   0.000000
 -2.265600  89.469800   2.364520  -0.675780  -1.731510  -0.121851   0.315611   3.244650   0.066955   0.628932   6.489610   0.116254  -0.929545  -0.208671   0.002194  -1.527790  -0.423076   4.645880  -3.966190   1.781280   4.461600 -79.231200   4.335190  -2.032760  -0.026370   5.451140 -16.280300   9.597330  -2.926830  -3.167260  40.601500  34.220600 -50.665400 -32.187500  -0.002310   0.006294 -11.093800   0.014405   0.002835 -31.122300  -1.361980   2.254390 -25.485500  -0.007901   0.000789 -17.839900  -0.005794   0.001577 -25.976200  -4.298510   8.746500 -26.305200   0.002223   0.005572 -17.519300  -0.001042  -0.011084 -28.246200  -4.643440   8.570110 -37.291100  -0.000523   0.000849 -24.835900   0.002349   0.000256 -34.236400  -5.515630   8.039220 -51.936700   0.003201  -0.002358 -34.589800   0.001801   0.001144  10.391600   3.044820   2.084240  69.806100  -7.696030   0.690821   2.948240  -3.885460  24.949700 -16.205900  -9.528180   9.551150 -35.179100  29.857800  74.094000  26.712300  -0.008057   0.002616   8.356140   0.008145   0.003329  33.136800   1.013630   1.540860  27.118800   0.008694   0.007770  18.983100  -0.004466   0.007000  28.514800  -3.760000  -6.870770  42.996800  -0.004078   0.002825  28.635800   0.011282   0.002135  28.386900  -3.639060  -6.700660  37.442000   0.001074   0.006188  24.936400  -0.008704  -0.001154  39.913400  -4.920810  -5.832110  60.252700   0.002786   0.021022  40.128300   0.004813   0.004724   3.559500   2.462410  -1.052350   0.894069   2.737640  10.317200  -3.805680  -3.883920  -0.633793   0.000000   0.000000   0.000000   0.726876   4.660380  -5.942310   1.807760   0.157905 -14.330700  -0.521305  -3.273930   1.816120  -0.000000   0.000000   0.000000
 -2.258480  89.473400   2.337560  -0.656727  -1.853220  -0.174373   0.349906   3.324520   0.001069   0.701505   6.648980  -0.018286  -1.028200  -0.249040   0.002033  -1.691020  -0.504560   5.093120  -3.953960   1.823490   4.392500 -79.246300   4.397750  -2.030820  -0.100386   5.231010 -16.366400   9.554350  -2.709170  -3.151020  40.597800  34.233900 -50.673500 -32.210100  -0.002330   0.006307 -11.105100   0.014804   0.002848 -31.136100  -1.369880   2.266100 -25.496900  -0.007917   0.000927 -17.847900  -0.005940   0.001581 -26.025800  -4.301190   8.733890 -26.354500   0.002306   0.005713 -17.552100  -0.000830  -0.011363 -28.246000  -4.639750   8.563130 -37.290500  -0.000523   0.000849 -24.835500   0.002435   0.000319 -34.220400  -5.508900   8.034310 -51.911700   0.003328  -0.002363 -34.573100   0.001870   0.001193  10.277200   3.042730   2.005490  69.973300  -8.143620   0.643387   2.459140  -3.031440  27.888300 -15.885700 -10.121500  10.360800 -35.388100  30.334000  74.499400  27.106500  -0.008212   0.002703   8.553230   0.008162   0.003335  33.058400   1.231380   1.877460  27.060800   0.008945   0.007784  18.942500  -0.004469   0.006997  28.608000  -3.755490  -6.831220  43.252400  -0.003914   0.002640  28.806000   0.011230   0.001994  28.369500  -3.667980  -6.755650  37.252200   0.001038   0.006124  24.810000  -0.008647  -0.001116  40.146200  -4.982540  -5.853070  60.619500   0.002705   0.026297  40.372600   0.004586   0.004500   3.547980   2.551340  -1.047050   0.892221   2.776650  10.349700  -3.813970  -3.884220  -0.626122  -0.000000   0.000000  -0.000000   0.713473   4.760910  -5.936700   1.806150   0.166800 -14.304400  -0.523863  -3.272360   1.834700  -0.000000   0.000000  -0.000000
